<mxfile host="app.diagrams.net" agent="Mozilla/5.0 (Windows NT 10.0; Win64; x64) AppleWebKit/537.36 (KHTML, like Gecko) Chrome/134.0.0.0 Safari/537.36 Edg/134.0.0.0" version="26.1.0">
  <diagram name="第 1 页" id="5RPhW2Jj_3Qy2inbSfef">
    <mxGraphModel dx="1404" dy="1690" grid="0" gridSize="10" guides="1" tooltips="1" connect="1" arrows="1" fold="1" page="0" pageScale="1" pageWidth="827" pageHeight="1169" background="none" math="0" shadow="0">
      <root>
        <mxCell id="0" />
        <mxCell id="1" parent="0" />
        <mxCell id="kTAInymMW0h2QGbCLt8H-1" value="" style="whiteSpace=wrap;strokeWidth=2;fontSize=16;" vertex="1" parent="1">
          <mxGeometry x="1590" y="-288" width="490" height="660" as="geometry" />
        </mxCell>
        <mxCell id="kTAInymMW0h2QGbCLt8H-2" value="" style="whiteSpace=wrap;strokeWidth=2;fontSize=16;" vertex="1" parent="1">
          <mxGeometry x="1107" y="-288" width="340" height="660" as="geometry" />
        </mxCell>
        <mxCell id="kTAInymMW0h2QGbCLt8H-3" value="" style="whiteSpace=wrap;strokeWidth=2;fontSize=16;" vertex="1" parent="1">
          <mxGeometry x="610" y="-288" width="340" height="660" as="geometry" />
        </mxCell>
        <mxCell id="kTAInymMW0h2QGbCLt8H-80" style="edgeStyle=orthogonalEdgeStyle;rounded=0;orthogonalLoop=1;jettySize=auto;html=1;fontSize=16;" edge="1" parent="1" source="kTAInymMW0h2QGbCLt8H-4" target="kTAInymMW0h2QGbCLt8H-5">
          <mxGeometry relative="1" as="geometry" />
        </mxCell>
        <mxCell id="kTAInymMW0h2QGbCLt8H-4" value="混淆二进制代码" style="whiteSpace=wrap;strokeWidth=2;fontSize=16;" vertex="1" parent="1">
          <mxGeometry x="676" y="-250" width="210" height="54" as="geometry" />
        </mxCell>
        <mxCell id="kTAInymMW0h2QGbCLt8H-5" value="图卷积特征提取器&#xa;（HAGCN网络）" style="whiteSpace=wrap;strokeWidth=2;fontSize=16;" vertex="1" parent="1">
          <mxGeometry x="676" y="-146" width="210" height="54" as="geometry" />
        </mxCell>
        <mxCell id="kTAInymMW0h2QGbCLt8H-6" value="指令序列Transformer&#xa;（ROP链建模）" style="whiteSpace=wrap;strokeWidth=2;fontSize=16;" vertex="1" parent="1">
          <mxGeometry x="676" y="-5" width="210" height="54" as="geometry" />
        </mxCell>
        <mxCell id="kTAInymMW0h2QGbCLt8H-65" value="" style="edgeStyle=orthogonalEdgeStyle;rounded=0;orthogonalLoop=1;jettySize=auto;html=1;fontSize=16;" edge="1" parent="1" source="kTAInymMW0h2QGbCLt8H-7" target="kTAInymMW0h2QGbCLt8H-8">
          <mxGeometry relative="1" as="geometry" />
        </mxCell>
        <mxCell id="kTAInymMW0h2QGbCLt8H-66" value="语义不变指纹" style="edgeLabel;html=1;align=center;verticalAlign=middle;resizable=0;points=[];fontSize=16;" vertex="1" connectable="0" parent="kTAInymMW0h2QGbCLt8H-65">
          <mxGeometry x="-0.3067" y="6" relative="1" as="geometry">
            <mxPoint y="-1" as="offset" />
          </mxGeometry>
        </mxCell>
        <mxCell id="kTAInymMW0h2QGbCLt8H-7" value="对比学习优化器&#xa;（NT-Xent损失）" style="whiteSpace=wrap;strokeWidth=2;fontSize=16;" vertex="1" parent="1">
          <mxGeometry x="676" y="145" width="210" height="54" as="geometry" />
        </mxCell>
        <mxCell id="kTAInymMW0h2QGbCLt8H-71" style="edgeStyle=orthogonalEdgeStyle;rounded=0;orthogonalLoop=1;jettySize=auto;html=1;entryX=0;entryY=0.5;entryDx=0;entryDy=0;fontSize=16;shape=flexArrow;" edge="1" parent="1" source="kTAInymMW0h2QGbCLt8H-8" target="kTAInymMW0h2QGbCLt8H-10">
          <mxGeometry relative="1" as="geometry" />
        </mxCell>
        <mxCell id="kTAInymMW0h2QGbCLt8H-8" value="工具语义指纹库" style="whiteSpace=wrap;strokeWidth=2;fontSize=16;" vertex="1" parent="1">
          <mxGeometry x="676" y="284" width="210" height="54" as="geometry" />
        </mxCell>
        <mxCell id="kTAInymMW0h2QGbCLt8H-9" value="进程树" style="whiteSpace=wrap;strokeWidth=2;fontSize=16;" vertex="1" parent="1">
          <mxGeometry x="1172" y="-233" width="210" height="54" as="geometry" />
        </mxCell>
        <mxCell id="kTAInymMW0h2QGbCLt8H-10" value="时空异构图构建器" style="whiteSpace=wrap;strokeWidth=2;fontSize=16;" vertex="1" parent="1">
          <mxGeometry x="1172" y="-127" width="210" height="54" as="geometry" />
        </mxCell>
        <mxCell id="kTAInymMW0h2QGbCLt8H-11" value="动态图注意力网络&#xa;（GRU+多头注意力）" style="whiteSpace=wrap;strokeWidth=2;fontSize=16;" vertex="1" parent="1">
          <mxGeometry x="1172" y="4.5" width="210" height="54" as="geometry" />
        </mxCell>
        <mxCell id="kTAInymMW0h2QGbCLt8H-12" value="双塔对比学习架构&#xa;（余弦相似度约束）" style="whiteSpace=wrap;strokeWidth=2;fontSize=16;" vertex="1" parent="1">
          <mxGeometry x="1172" y="137" width="210" height="54" as="geometry" />
        </mxCell>
        <mxCell id="kTAInymMW0h2QGbCLt8H-81" style="edgeStyle=orthogonalEdgeStyle;rounded=0;orthogonalLoop=1;jettySize=auto;html=1;entryX=0;entryY=0.5;entryDx=0;entryDy=0;fontSize=16;shape=flexArrow;" edge="1" parent="1" source="kTAInymMW0h2QGbCLt8H-13" target="kTAInymMW0h2QGbCLt8H-16">
          <mxGeometry relative="1" as="geometry">
            <Array as="points">
              <mxPoint x="1522" y="309" />
              <mxPoint x="1522" y="138" />
            </Array>
          </mxGeometry>
        </mxCell>
        <mxCell id="kTAInymMW0h2QGbCLt8H-13" value="强判别性指纹" style="whiteSpace=wrap;strokeWidth=2;fontSize=16;" vertex="1" parent="1">
          <mxGeometry x="1172" y="282" width="210" height="54" as="geometry" />
        </mxCell>
        <mxCell id="kTAInymMW0h2QGbCLt8H-14" value="对抗样本" style="whiteSpace=wrap;strokeWidth=2;fontSize=16;" vertex="1" parent="1">
          <mxGeometry x="1620" y="-179" width="210" height="54" as="geometry" />
        </mxCell>
        <mxCell id="kTAInymMW0h2QGbCLt8H-62" style="edgeStyle=orthogonalEdgeStyle;rounded=0;orthogonalLoop=1;jettySize=auto;html=1;exitX=0.5;exitY=1;exitDx=0;exitDy=0;fontSize=16;entryX=0.25;entryY=0;entryDx=0;entryDy=0;" edge="1" parent="1" source="kTAInymMW0h2QGbCLt8H-15" target="kTAInymMW0h2QGbCLt8H-16">
          <mxGeometry relative="1" as="geometry" />
        </mxCell>
        <mxCell id="kTAInymMW0h2QGbCLt8H-63" value="鲁棒指纹模型" style="edgeLabel;html=1;align=center;verticalAlign=middle;resizable=0;points=[];fontSize=16;" vertex="1" connectable="0" parent="kTAInymMW0h2QGbCLt8H-62">
          <mxGeometry x="-0.2704" y="1" relative="1" as="geometry">
            <mxPoint as="offset" />
          </mxGeometry>
        </mxCell>
        <mxCell id="kTAInymMW0h2QGbCLt8H-82" style="edgeStyle=orthogonalEdgeStyle;rounded=0;orthogonalLoop=1;jettySize=auto;html=1;entryX=0.5;entryY=1;entryDx=0;entryDy=0;fontSize=16;shape=flexArrow;" edge="1" parent="1">
          <mxGeometry relative="1" as="geometry">
            <mxPoint x="1660.0000000000005" y="-2.2737367544323206e-13" as="sourcePoint" />
            <mxPoint x="781" y="337" as="targetPoint" />
            <Array as="points">
              <mxPoint x="1660" y="410" />
              <mxPoint x="781" y="410" />
            </Array>
          </mxGeometry>
        </mxCell>
        <mxCell id="kTAInymMW0h2QGbCLt8H-84" value="反馈优化" style="edgeLabel;html=1;align=center;verticalAlign=middle;resizable=0;points=[];fontSize=16;" vertex="1" connectable="0" parent="kTAInymMW0h2QGbCLt8H-82">
          <mxGeometry x="0.2047" y="-2" relative="1" as="geometry">
            <mxPoint as="offset" />
          </mxGeometry>
        </mxCell>
        <mxCell id="kTAInymMW0h2QGbCLt8H-15" value="梯度掩蔽对抗训练器" style="whiteSpace=wrap;strokeWidth=2;fontSize=16;" vertex="1" parent="1">
          <mxGeometry x="1620" y="-53" width="210" height="54" as="geometry" />
        </mxCell>
        <mxCell id="kTAInymMW0h2QGbCLt8H-16" value="司法级溯源引擎" style="whiteSpace=wrap;strokeWidth=2;fontSize=16;" vertex="1" parent="1">
          <mxGeometry x="1760" y="111" width="210" height="54" as="geometry" />
        </mxCell>
        <mxCell id="kTAInymMW0h2QGbCLt8H-17" value="输出" style="shape=hexagon;perimeter=hexagonPerimeter2;fixedSize=1;strokeWidth=2;whiteSpace=wrap;fontSize=16;" vertex="1" parent="1">
          <mxGeometry x="1760" y="276" width="210" height="54" as="geometry" />
        </mxCell>
        <mxCell id="kTAInymMW0h2QGbCLt8H-18" value="MITRE ATT&amp;CK图谱" style="whiteSpace=wrap;strokeWidth=2;fontSize=16;" vertex="1" parent="1">
          <mxGeometry x="1850" y="-54" width="210" height="54" as="geometry" />
        </mxCell>
        <mxCell id="kTAInymMW0h2QGbCLt8H-19" value="" style="whiteSpace=wrap;strokeWidth=2;fontSize=16;" vertex="1" parent="1">
          <mxGeometry x="1001" y="128" as="geometry" />
        </mxCell>
        <mxCell id="kTAInymMW0h2QGbCLt8H-20" value="" style="whiteSpace=wrap;strokeWidth=2;fontSize=16;" vertex="1" parent="1">
          <mxGeometry x="1032" y="254" as="geometry" />
        </mxCell>
        <mxCell id="kTAInymMW0h2QGbCLt8H-21" value="" style="whiteSpace=wrap;strokeWidth=2;fontSize=16;" vertex="1" parent="1">
          <mxGeometry x="861" y="159" as="geometry" />
        </mxCell>
        <mxCell id="kTAInymMW0h2QGbCLt8H-22" value="" style="whiteSpace=wrap;strokeWidth=2;fontSize=16;" vertex="1" parent="1">
          <mxGeometry x="892" y="311" as="geometry" />
        </mxCell>
        <mxCell id="kTAInymMW0h2QGbCLt8H-23" value="" style="whiteSpace=wrap;strokeWidth=2;fontSize=16;" vertex="1" parent="1">
          <mxGeometry x="726" y="311" as="geometry" />
        </mxCell>
        <mxCell id="kTAInymMW0h2QGbCLt8H-24" value="" style="whiteSpace=wrap;strokeWidth=2;fontSize=16;" vertex="1" parent="1">
          <mxGeometry x="1289" y="-300" as="geometry" />
        </mxCell>
        <mxCell id="kTAInymMW0h2QGbCLt8H-25" value="" style="whiteSpace=wrap;strokeWidth=2;fontSize=16;" vertex="1" parent="1">
          <mxGeometry x="1400" y="178" as="geometry" />
        </mxCell>
        <mxCell id="kTAInymMW0h2QGbCLt8H-26" value="" style="whiteSpace=wrap;strokeWidth=2;fontSize=16;" vertex="1" parent="1">
          <mxGeometry x="1441" y="305" as="geometry" />
        </mxCell>
        <mxCell id="kTAInymMW0h2QGbCLt8H-27" value="" style="whiteSpace=wrap;strokeWidth=2;fontSize=16;" vertex="1" parent="1">
          <mxGeometry x="1241" y="305" as="geometry" />
        </mxCell>
        <mxCell id="kTAInymMW0h2QGbCLt8H-28" value="" style="whiteSpace=wrap;strokeWidth=2;fontSize=16;" vertex="1" parent="1">
          <mxGeometry x="1280" y="431" as="geometry" />
        </mxCell>
        <mxCell id="kTAInymMW0h2QGbCLt8H-30" value="控制流/数据流嵌入" style="startArrow=none;endArrow=block;exitX=0.5;exitY=1;entryX=0.5;entryY=0;rounded=0;exitDx=0;exitDy=0;fontSize=16;entryDx=0;entryDy=0;" edge="1" parent="1" source="kTAInymMW0h2QGbCLt8H-5" target="kTAInymMW0h2QGbCLt8H-6">
          <mxGeometry relative="1" as="geometry" />
        </mxCell>
        <mxCell id="kTAInymMW0h2QGbCLt8H-31" value="指令语义向量" style="curved=1;startArrow=none;endArrow=block;exitX=0.5;exitY=1;entryX=0.5;entryY=0.01;rounded=0;exitDx=0;exitDy=0;fontSize=16;" edge="1" parent="1" source="kTAInymMW0h2QGbCLt8H-6" target="kTAInymMW0h2QGbCLt8H-7">
          <mxGeometry relative="1" as="geometry">
            <Array as="points" />
          </mxGeometry>
        </mxCell>
        <mxCell id="kTAInymMW0h2QGbCLt8H-42" value="" style="curved=1;startArrow=none;endArrow=block;exitX=0.5;exitY=1;entryX=0.5;entryY=-0.01;rounded=0;fontSize=16;" edge="1" parent="1" source="kTAInymMW0h2QGbCLt8H-9" target="kTAInymMW0h2QGbCLt8H-10">
          <mxGeometry relative="1" as="geometry">
            <Array as="points" />
          </mxGeometry>
        </mxCell>
        <mxCell id="kTAInymMW0h2QGbCLt8H-43" value="多跳时空图" style="curved=1;startArrow=none;endArrow=block;exitX=0.5;exitY=0.99;entryX=0.5;entryY=0.01;rounded=0;fontSize=16;" edge="1" parent="1" source="kTAInymMW0h2QGbCLt8H-10" target="kTAInymMW0h2QGbCLt8H-11">
          <mxGeometry relative="1" as="geometry">
            <Array as="points" />
          </mxGeometry>
        </mxCell>
        <mxCell id="kTAInymMW0h2QGbCLt8H-44" value="行为链特征" style="startArrow=none;endArrow=block;exitX=0.5;exitY=1;entryX=0.5;entryY=0;rounded=0;fontSize=16;exitDx=0;exitDy=0;" edge="1" parent="1" source="kTAInymMW0h2QGbCLt8H-11" target="kTAInymMW0h2QGbCLt8H-12">
          <mxGeometry relative="1" as="geometry" />
        </mxCell>
        <mxCell id="kTAInymMW0h2QGbCLt8H-45" value="上下文指纹" style="startArrow=none;endArrow=block;exitX=0.5;exitY=1;entryX=0.5;entryY=-0.01;rounded=0;fontSize=16;exitDx=0;exitDy=0;" edge="1" parent="1" source="kTAInymMW0h2QGbCLt8H-12" target="kTAInymMW0h2QGbCLt8H-13">
          <mxGeometry relative="1" as="geometry" />
        </mxCell>
        <mxCell id="kTAInymMW0h2QGbCLt8H-52" value="" style="curved=1;startArrow=none;endArrow=block;exitX=0.5;exitY=0.99;entryX=0.5;entryY=0.01;rounded=0;fontSize=16;" edge="1" parent="1" source="kTAInymMW0h2QGbCLt8H-14" target="kTAInymMW0h2QGbCLt8H-15">
          <mxGeometry relative="1" as="geometry">
            <Array as="points" />
          </mxGeometry>
        </mxCell>
        <mxCell id="kTAInymMW0h2QGbCLt8H-54" value="司法溯源报告" style="curved=1;startArrow=none;endArrow=block;exitX=0.5;exitY=1.01;entryX=0.49;entryY=0;rounded=0;fontSize=16;" edge="1" parent="1" source="kTAInymMW0h2QGbCLt8H-16" target="kTAInymMW0h2QGbCLt8H-17">
          <mxGeometry relative="1" as="geometry">
            <Array as="points" />
          </mxGeometry>
        </mxCell>
        <mxCell id="kTAInymMW0h2QGbCLt8H-75" style="edgeStyle=orthogonalEdgeStyle;rounded=0;orthogonalLoop=1;jettySize=auto;html=1;entryX=0.689;entryY=0.088;entryDx=0;entryDy=0;entryPerimeter=0;fontSize=16;" edge="1" parent="1" source="kTAInymMW0h2QGbCLt8H-18" target="kTAInymMW0h2QGbCLt8H-16">
          <mxGeometry relative="1" as="geometry" />
        </mxCell>
      </root>
    </mxGraphModel>
  </diagram>
</mxfile>
